<svg xmlns="http://www.w3.org/2000/svg" width="1333.333" height="1333.333" version="1.0" viewBox="0 0 1000 1000" fill="#fff"><path d="M487.4 2c-4.8 1.6-53.6 33.5-237.5 155.5C122.6 242 16.6 312.6 14.4 314.5 8.9 319 4.4 326 2 333.8c-2 6.3-2 9.9-2 166.2s0 159.9 2 166.2c2.4 7.8 6.9 14.8 12.4 19.3 2.2 1.9 108.2 72.5 235.5 157C499.2 1007.9 486.7 1000 500 1000s.8 7.9 250.1-157.5c127.3-84.5 233.3-155.1 235.5-157 5.5-4.5 10-11.5 12.4-19.3 2-6.3 2-9.9 2-166.2s0-159.9-2-166.2c-2.4-7.8-6.9-14.8-12.4-19.3-2.2-1.9-108.2-72.5-235.5-157C556.5 29.1 517.6 3.6 512.2 2c-8-2.5-16.8-2.5-24.8 0M458 221.9v102l-93.6 62.9-93.5 62.9-76.9-51.6c-58.4-39.2-76.5-51.9-75.7-52.8 1.2-1.1 338.8-225.3 339.4-225.3.2 0 .3 45.9.3 101.9m254.5 10.9C804.9 294 881 344.7 881.7 345.3c.8.9-17.3 13.6-75.7 52.8l-76.9 51.6-93.5-62.9-93.6-62.9v-102c0-81.3.3-101.9 1.3-101.3.6.4 76.8 50.9 169.2 112.2M577.3 448c42.1 28.3 76.6 51.7 76.6 52s-34.6 23.8-76.9 52.2l-77 51.7-77-51.7c-42.3-28.4-76.9-51.9-76.9-52.2 0-.7 153.3-103.9 154-103.7.3.1 35.1 23.4 77.2 51.7m-390.2 46c4.1 2.8 7.4 5.5 7.4 6 0 1.1-2.7 3-63.1 43.6L83 576.1V423.9l48.4 32.5c26.6 17.9 51.7 34.8 55.7 37.6m729.7 43.9-.3 37.9-55.5-37.4c-30.5-20.5-55.5-37.8-55.5-38.4s25-17.9 55.5-38.4l55.5-37.4.3 37.9c.1 20.9.1 54.9 0 75.8m-551.5 75.9 92.7 62.3v102c0 81.3-.3 101.9-1.2 101.3-4.2-2.4-337.5-223.8-338.5-224.7-.8-.9 17.2-13.6 75.5-52.8 42.2-28.3 77.2-51.3 77.7-51 .6.3 42.7 28.6 93.8 62.9m516.4 40.9c-1 .9-334.3 222.3-338.4 224.7-1 .6-1.3-20-1.3-101.3v-102l93.6-62.9 93.5-62.9 76.9 51.6c58.4 39.2 76.5 51.9 75.7 52.8"/></svg>
